<svg width="519" height="101" viewBox="0 0 519 101" fill="none" xmlns="http://www.w3.org/2000/svg">
<g clip-path="url(#clip0_6_249)">
<g filter="url(#filter0_d_6_249)">
<path d="M200.563 48.0018V31.1613H203.725V53.1775C202.833 53.1775 201.936 53.1898 201.039 53.1653C200.891 53.1612 200.716 53.0157 200.608 52.8907C199.535 51.6589 198.48 50.4122 197.407 49.1792C196.362 47.9787 195.295 46.7959 194.251 45.5941C192.886 44.0225 191.54 42.4345 190.176 40.8629C189.162 39.6951 188.133 38.5395 187.108 37.3812C186.86 37.1011 186.606 36.8265 186.254 36.4377V53.1476H183.217V31.1097C184.011 31.1097 184.828 31.0363 185.619 31.145C185.952 31.1899 186.272 31.5855 186.531 31.8792C187.69 33.187 188.826 34.5126 189.965 35.8354C191.601 37.7347 193.23 39.6407 194.869 41.5372C195.821 42.6398 196.785 43.7329 197.747 44.8259C198.645 45.8456 199.549 46.8598 200.563 48.0045V48.0018Z" fill="white"/>
<path d="M487.454 53.18C486.567 53.18 485.709 53.195 484.854 53.1678C484.682 53.1624 484.472 53.0332 484.353 52.8973C483.276 51.6696 482.219 50.4243 481.149 49.1885C480.475 48.4081 479.788 47.6386 479.112 46.8596C477.365 44.8475 475.626 42.8286 473.874 40.8206C472.625 39.389 471.359 37.971 470.001 36.4348V53.142H466.957V31.1108C467.757 31.1108 468.585 31.0959 469.412 31.1244C469.556 31.1299 469.719 31.2985 469.832 31.4276C471.258 33.0658 472.674 34.7122 474.098 36.3518C475.099 37.502 476.114 38.6385 477.115 39.7887C478.525 41.4106 479.917 43.0475 481.331 44.6667C482.27 45.7421 483.234 46.7971 484.277 47.9608V31.1421H487.454V53.18Z" fill="white"/>
<path d="M117.19 31.1384H120.25V53.1776C119.406 53.1776 118.545 53.2483 117.706 53.1423C117.375 53.1002 117.057 52.7005 116.796 52.4054C115.622 51.0813 114.468 49.7408 113.314 48.4003C111.693 46.5173 110.082 44.6262 108.459 42.746C107.492 41.6271 106.508 40.5218 105.533 39.4097C104.696 38.4553 103.858 37.5023 102.919 36.431V53.145H99.8804V31.1071C100.674 31.1071 101.481 31.0935 102.287 31.1193C102.435 31.1248 102.61 31.2662 102.72 31.3912C103.793 32.623 104.851 33.8683 105.922 35.1014C106.643 35.9321 107.382 36.745 108.103 37.5744C109.528 39.2139 110.939 40.8631 112.365 42.5013C113.38 43.6678 114.414 44.8206 115.435 45.9817C115.991 46.6139 116.54 47.2542 117.193 48.0074V31.1356L117.19 31.1384Z" fill="white"/>
<path d="M323.506 31.1367H326.663V40.5691H339.073V31.1612H342.264V53.1379H339.119V43.73H326.709V53.1379H323.506V31.1381V31.1367Z" fill="white"/>
<path d="M160.007 31.1206H163.126C163.126 31.3952 163.126 31.6549 163.126 31.9146C163.126 35.9184 163.104 39.9208 163.141 43.9246C163.15 44.8981 163.276 45.8878 163.482 46.8408C163.871 48.6422 165.212 49.6591 166.821 50.2111C168.84 50.9044 170.901 50.827 172.867 49.8739C174.75 48.9617 175.651 47.386 175.673 45.3603C175.719 40.9051 175.688 36.4486 175.688 31.9934C175.688 31.7256 175.688 31.4591 175.688 31.1478H179.032C179.032 31.4102 179.032 31.6522 179.032 31.8928C179.032 36.1223 179.058 40.3518 179.017 44.5813C179.003 46.0278 178.794 47.4621 178.176 48.8121C177.048 51.2742 175.016 52.5794 172.49 53.1531C169.816 53.7608 167.114 53.6833 164.586 52.5699C161.92 51.3952 160.186 49.3002 160.086 46.3324C159.916 41.3239 159.969 36.3086 159.931 31.296C159.931 31.2566 159.963 31.2171 160.004 31.1206H160.007Z" fill="white"/>
<path d="M249.768 53.1802C250.916 50.5005 252.029 47.9106 253.133 45.3167C254.378 42.3923 255.616 39.4625 256.859 36.5382C257.583 34.8401 258.317 33.1462 259.039 31.4468C259.187 31.0974 259.396 30.9301 259.806 30.9587C260.392 30.9995 260.982 30.9696 261.6 30.9696C264.889 38.3436 268.175 45.7109 271.504 53.1774C270.41 53.1774 269.382 53.1951 268.356 53.1584C268.201 53.153 267.995 52.9178 267.917 52.7424C267.071 50.8785 266.232 49.0091 265.426 47.1275C265.278 46.7822 265.116 46.6544 264.742 46.6558C261.955 46.6694 259.168 46.6694 256.382 46.6558C256.008 46.6544 255.843 46.7809 255.701 47.1303C254.929 49.0241 254.132 50.9084 253.311 52.7805C253.231 52.964 252.928 53.153 252.72 53.1625C251.771 53.2033 250.819 53.1802 249.768 53.1802ZM263.895 43.8334C262.741 41.2394 261.602 38.6794 260.4 35.9767C259.293 38.6631 258.242 41.2163 257.165 43.8334H263.896H263.895Z" fill="white"/>
<path d="M243.113 53.1598H239.774C239.082 51.6209 238.381 50.0642 237.683 48.5062C237.465 48.0195 237.292 47.5069 237.027 47.0474C236.921 46.8625 236.624 46.6803 236.414 46.679C233.627 46.6545 230.84 46.6667 228.053 46.6572C227.684 46.6572 227.529 46.7809 227.382 47.1426C226.629 48.997 225.816 50.8255 225.044 52.6718C224.885 53.0511 224.684 53.2088 224.253 53.1898C223.351 53.1517 222.447 53.1775 221.443 53.1775C221.91 52.0627 222.341 51.0227 222.782 49.9867C224.08 46.9386 225.38 43.8919 226.682 40.8466C227.775 38.2907 228.87 35.7361 229.968 33.1816C230.161 32.7316 230.466 32.3074 230.558 31.8411C230.719 31.0335 231.203 30.9982 231.897 30.9329C232.966 30.8323 233.44 31.2375 233.854 32.1946C235.81 36.73 237.855 41.2286 239.863 45.7423C240.903 48.0793 241.933 50.4218 242.967 52.7615C243.018 52.8798 243.058 53.0035 243.115 53.1571L243.113 53.1598ZM228.815 43.828H235.552C234.396 41.2327 233.272 38.7067 232.146 36.1821C232.086 36.1916 232.028 36.2025 231.968 36.212C230.927 38.7271 229.885 41.2436 228.815 43.828Z" fill="white"/>
<path d="M439.517 36.0473C438.43 35.5782 437.405 35.1051 436.355 34.6918C434.576 33.9917 432.705 33.7279 430.817 33.9196C427.265 34.2812 424.194 36.6278 423.353 40.2251C422.678 43.1114 423.308 45.7407 425.331 47.9078C426.684 49.357 428.439 50.1374 430.449 50.4025C433.247 50.7709 435.796 50.0517 438.264 48.8608C438.753 48.6242 439.208 48.3143 439.788 47.9744C439.788 49.1681 439.8 50.223 439.773 51.2767C439.769 51.4262 439.6 51.6274 439.455 51.7063C437.814 52.609 436.049 53.146 434.187 53.3065C433.022 53.4071 431.846 53.4791 430.679 53.4383C426.628 53.2983 423.504 51.516 421.357 48.0573C420.18 46.1594 419.648 44.0671 419.743 41.8715C419.89 38.4822 421.224 35.6584 423.913 33.4533C426.689 31.1774 429.885 30.5847 433.306 30.8607C435.329 31.0238 437.27 31.6519 439.134 32.4676C439.295 32.5383 439.493 32.7531 439.498 32.9068C439.531 33.9414 439.515 34.9773 439.515 36.0486L439.517 36.0473Z" fill="white"/>
<path d="M409.038 48.0958V51.6224C406.013 53.3109 402.729 53.6698 399.383 53.4251C396.582 53.2198 394.092 52.1281 392.164 50.0236C390.583 48.297 389.566 46.2808 389.253 43.9152C388.951 41.6394 389.121 39.4315 390.149 37.3786C391.802 34.0777 394.449 31.9351 398.076 31.1166C401.207 30.4097 404.253 30.9181 407.239 31.9473C408.925 32.5278 408.928 32.5197 408.928 34.2803V36.0096C407.622 35.4875 406.393 34.9029 405.106 34.5019C402.364 33.6467 399.592 33.4727 396.967 34.873C394.563 36.155 393.001 38.0992 392.596 40.8971C392.173 43.816 392.963 46.2917 395.111 48.3051C396.419 49.5314 398.019 50.1459 399.791 50.392C403.033 50.842 405.917 49.8835 408.641 48.2372C408.747 48.1733 408.88 48.1515 409.037 48.0971L409.038 48.0958Z" fill="white"/>
<path d="M518.642 36.0517C517.546 35.5799 516.547 35.0864 515.503 34.7153C512.616 33.6875 509.676 33.3775 506.851 34.7982C504.323 36.0694 502.712 38.1168 502.313 41.0221C501.929 43.8051 502.658 46.2006 504.678 48.1528C506.031 49.4593 507.687 50.135 509.564 50.4015C512.199 50.7767 514.605 50.0956 516.956 49.0528C517.557 48.7864 518.116 48.422 518.774 48.059C518.774 49.2309 518.783 50.3308 518.76 51.4293C518.757 51.5544 518.588 51.7257 518.453 51.7909C516.82 52.5876 515.118 53.1804 513.294 53.3068C511.968 53.3979 510.63 53.5135 509.31 53.4264C506.95 53.2715 504.792 52.506 502.931 50.9711C500.787 49.2024 499.448 46.9415 499.02 44.2401C498.326 39.8665 499.629 36.2012 503.147 33.3394C505.902 31.0989 509.075 30.6068 512.437 30.8569C514.397 31.0024 516.261 31.6591 518.087 32.3823C518.462 32.5305 518.689 32.7181 518.657 33.2103C518.597 34.1334 518.639 35.0633 518.639 36.0503L518.642 36.0517Z" fill="white"/>
<path d="M276.828 40.614H285.854V43.5165H276.828V50.2312H286.535V53.127H273.624V31.1489H286.126V34.0121H276.828V40.6153V40.614Z" fill="white"/>
<path d="M359.682 50.2163V53.1311H346.896V31.1421H359.386V34.0202H350.101V40.5745H359.114V43.5247H350.1V50.2149H359.682V50.2163Z" fill="white"/>
<path d="M147.246 53.146H143.911V31.1039H144.675C147.076 31.1039 149.477 31.07 151.877 31.1135C154.506 31.1597 157.084 32.8034 157.766 35.6244C158.318 37.9097 157.885 40.0537 156.223 41.7789C155.334 42.7034 154.146 43.2663 152.843 43.3927C151.012 43.5694 149.173 43.6633 147.248 43.7978V53.146H147.246ZM147.252 40.7444C148.447 40.7444 149.555 40.7362 150.661 40.7457C152.641 40.7647 154.286 39.8756 154.569 37.7507C154.714 36.6549 154.154 34.8658 152.955 34.4511C152.374 34.2499 151.761 34.0664 151.155 34.0364C149.865 33.9739 148.569 34.0174 147.22 34.0174C147.22 36.0662 147.22 38.1395 147.22 40.2114C147.22 40.3637 147.238 40.5159 147.25 40.743L147.252 40.7444Z" fill="white"/>
<path d="M288.53 47.5055C289.4 48.2301 290.156 48.9751 291.022 49.5543C292.376 50.4598 293.894 50.8717 295.53 50.5046C296.681 50.2463 297.53 49.5162 297.849 48.4028C298.161 47.3179 297.78 46.2493 296.934 45.5451C295.776 44.5798 294.518 43.7192 293.235 42.9239C291.72 41.9858 290.192 41.0532 289.22 39.5319C287.706 37.1622 288.289 33.7648 290.693 32.0626C293.016 30.4176 295.586 30.4815 298.129 31.3353C300.203 32.0314 300.166 32.1374 300.166 34.329V36.0297C299.517 35.5566 298.964 35.1053 298.367 34.726C296.861 33.7688 295.212 33.4888 293.491 33.9361C292.48 34.1985 291.642 34.7749 291.477 35.921C291.304 37.1174 291.888 38.0446 292.804 38.6781C294.321 39.7263 295.93 40.6413 297.478 41.6459C299.87 43.1985 301.254 45.3139 300.975 48.2682C300.722 50.9451 298.608 52.9327 296.196 53.3229C293.537 53.7525 291.083 53.274 288.87 51.7119C288.705 51.5963 288.549 51.3421 288.545 51.149C288.515 49.9527 288.53 48.7549 288.53 47.5069V47.5055Z" fill="white"/>
<path d="M368.478 33.8912H360.891V31.1572H379.38V33.8831H371.837V53.1408H368.477V33.8912H368.478Z" fill="white"/>
<path d="M205.676 31.1054C206.974 31.1054 208.164 30.9912 209.311 31.1612C209.779 31.2305 210.207 31.8735 210.565 32.3249C212.195 34.386 213.795 36.4701 215.457 38.6127C216.305 37.5537 217.136 36.534 217.946 35.4994C219.004 34.148 220.041 32.7804 221.104 31.4344C221.228 31.2781 221.464 31.1258 221.653 31.1204C222.848 31.0918 224.043 31.1054 225.374 31.1054C224.308 32.469 223.315 33.7443 222.317 35.0168C221.078 36.5965 219.836 38.1736 218.593 39.7493C218.426 39.96 218.257 40.1721 218.07 40.3638C217.333 41.1224 217.194 42.0265 217.213 43.0597C217.27 46.1581 217.233 49.2578 217.233 52.3562C217.233 52.6009 217.233 52.847 217.233 53.1352H213.889C213.889 52.8755 213.889 52.6335 213.889 52.3915C213.889 48.975 213.894 45.5599 213.878 42.1434C213.878 41.8783 213.794 41.5602 213.635 41.3562C211.319 38.3816 208.984 35.4219 206.658 32.4554C206.344 32.0544 206.055 31.6316 205.673 31.1041L205.676 31.1054Z" fill="white"/>
<path d="M142.035 31.1055C140.774 32.7138 139.595 34.2174 138.412 35.7197C137.183 37.2804 135.951 38.8371 134.721 40.3951C134.611 40.5352 134.514 40.6861 134.392 40.8152C133.949 41.2883 133.734 41.8036 133.742 42.4929C133.78 46.0195 133.76 49.5475 133.76 53.1271H130.551C130.551 52.896 130.551 52.6567 130.551 52.4174C130.551 49.3639 130.477 46.3077 130.587 43.2569C130.633 41.9722 130.165 41.0681 129.398 40.1382C127.796 38.1941 126.267 36.1874 124.711 34.2052C123.928 33.21 123.147 32.2121 122.281 31.1082C123.622 31.1082 124.852 31.0932 126.083 31.1259C126.261 31.1299 126.475 31.3325 126.603 31.4984C128.42 33.8395 130.225 36.1887 132.097 38.6209C132.78 37.7712 133.436 36.9664 134.078 36.1507C135.318 34.5723 136.541 32.9816 137.794 31.4141C137.924 31.2496 138.204 31.1245 138.418 31.1191C139.572 31.0905 140.726 31.1055 142.037 31.1055H142.035Z" fill="white"/>
<path d="M309.889 33.8978H302.299V31.1597H320.782V33.8746H313.114V53.1364H309.889V33.8978Z" fill="white"/>
<path d="M456.482 50.2176V53.1324H443.286V31.1421H446.562V50.219H456.482V50.2176Z" fill="white"/>
<path d="M385.372 53.1488H382.25V31.1489H385.372V53.1488Z" fill="white"/>
<path d="M495.085 53.1488H491.964V31.1489H495.085V53.1488Z" fill="white"/>
<path d="M462.185 53.1488H459.063V31.1489H462.185V53.1488Z" fill="white"/>
</g>
<g filter="url(#filter1_d_6_249)">
<path d="M255.542 64.7997H260.007C260.044 64.8568 260.079 64.9139 260.116 64.971C259.973 65.073 259.844 65.2388 259.687 65.2674C258.647 65.4591 258.581 65.5148 258.579 66.5861C258.574 69.2997 258.574 72.0133 258.579 74.727C258.582 75.7888 258.666 75.8635 259.69 76.043C259.844 76.0702 259.973 76.236 260.113 76.338C260.076 76.3937 260.039 76.4495 260.003 76.5052H255.539C255.505 76.4454 255.471 76.3856 255.437 76.3258C255.584 76.2279 255.72 76.0675 255.878 76.0416C256.888 75.8744 256.972 75.7996 256.978 74.7949C256.985 73.464 256.979 72.133 256.979 70.7503H251.279C251.279 71.4097 251.272 72.0786 251.28 72.7461C251.29 73.5143 251.337 74.2824 251.322 75.0505C251.31 75.7194 251.659 75.9641 252.262 76.0348C252.444 76.0566 252.61 76.2021 252.784 76.2918C252.754 76.3611 252.725 76.4304 252.695 76.4998H248.309L248.21 76.3149C248.361 76.2197 248.507 76.0539 248.663 76.0416C249.332 75.9927 249.695 75.7153 249.693 74.9948C249.684 72.1235 249.688 69.2535 249.702 66.3822C249.706 65.6603 249.385 65.3082 248.663 65.2674C248.507 65.2579 248.36 65.0879 248.21 64.9914C248.243 64.9289 248.277 64.865 248.309 64.8024H252.64C252.686 64.8446 252.731 64.8881 252.777 64.9302C252.652 65.0458 252.529 65.2565 252.402 65.2592C251.597 65.2769 251.285 65.6848 251.3 66.4583C251.322 67.6289 251.306 68.7994 251.306 70.0176H256.952C256.952 68.6662 256.978 67.3189 256.94 65.973C256.923 65.3721 256.38 65.3707 255.939 65.2701C255.761 65.2293 255.609 65.0838 255.444 64.986L255.542 64.7983V64.7997Z" fill="white"/>
<path d="M343.678 71.4464C343.678 72.7733 343.669 74.0798 343.682 75.385C343.687 75.9043 344.113 75.9356 344.489 76.0348C344.656 76.0783 344.802 76.2102 344.957 76.3013C344.926 76.3666 344.896 76.4332 344.864 76.4984H340.619C340.585 76.4373 340.552 76.3747 340.518 76.3135C340.669 76.2184 340.814 76.0498 340.969 76.0416C341.693 76.0008 342.005 75.6582 342.001 74.9255C341.984 72.0786 341.984 69.2304 342.001 66.3836C342.007 65.6467 341.682 65.3163 340.968 65.2687C340.812 65.2579 340.668 65.0879 340.386 64.9071C342.648 64.9071 344.682 64.831 346.708 64.9357C347.927 64.9996 348.72 65.8629 348.952 66.9722C349.252 68.4065 348.712 69.8109 347.569 70.5369C347.286 70.7164 346.98 70.8591 346.581 71.0739C347.664 72.6211 348.698 74.1505 349.801 75.627C349.987 75.8771 350.477 75.8921 350.815 76.0416C350.946 76.1001 351.045 76.2279 351.159 76.3258C351.042 76.3951 350.928 76.5229 350.81 76.5256C350.04 76.5433 349.269 76.5569 348.501 76.5175C348.333 76.5093 348.123 76.3135 348.02 76.149C347.222 74.8901 346.373 73.6557 345.686 72.3369C345.222 71.4491 344.626 71.2072 343.678 71.4464ZM343.707 70.8605C345.049 70.9366 346.296 70.8713 346.976 69.6016C347.596 68.4432 347.662 67.153 346.912 66.0573C346.142 64.9329 344.863 65.3109 343.707 65.2837V70.8605Z" fill="white"/>
<path d="M280.613 70.4584C281.075 70.6337 281.504 70.7602 281.899 70.9546C283.166 71.5759 283.777 72.7587 283.576 74.1345C283.4 75.3336 282.586 76.2309 281.187 76.3574C279.167 76.5409 277.129 76.5314 275.099 76.6048C275.064 76.5096 275.028 76.4158 274.993 76.3207C275.141 76.2241 275.285 76.0515 275.437 76.0447C276.161 76.0134 276.497 75.6654 276.495 74.9434C276.49 72.0939 276.491 69.2457 276.499 66.3961C276.502 65.6402 276.143 65.2881 275.394 65.2663C275.276 65.2636 275.163 65.0842 275.049 64.9863C275.166 64.9156 275.282 64.7823 275.398 64.7837C277.208 64.8082 279.018 64.8055 280.824 64.9033C281.867 64.9604 282.72 65.4866 282.992 66.5565C283.277 67.6754 283.067 68.7318 282.105 69.4945C281.657 69.8479 281.145 70.1198 280.615 70.4584H280.613ZM278.148 70.5807C278.148 72.3345 278.125 73.8898 278.177 75.4424C278.184 75.6395 278.555 75.9373 278.802 75.9944C280.147 76.3057 281.419 75.6504 281.8 74.5125C282.266 73.1176 281.642 71.5868 280.31 71.0742C279.653 70.8214 278.926 70.752 278.148 70.5807ZM278.106 70.1797C279.341 70.2544 280.466 70.1919 281.094 69.054C281.623 68.0969 281.712 67.016 281.055 66.0984C280.344 65.1045 279.209 65.2623 278.105 65.2854V70.1797H278.106Z" fill="white"/>
<path d="M328.156 71.0551C328.324 70.0381 328.365 68.9791 328.685 68.0111C329.547 65.4062 331.654 64.3485 334.164 64.5307C336.88 64.7278 338.714 66.5333 339.065 69.1205C339.256 70.5303 339.233 71.9143 338.785 73.267C337.91 75.9004 335.626 77.0791 333.049 76.7433C330.169 76.3681 328.542 74.53 328.335 71.6166C328.323 71.4357 328.304 71.2563 328.288 71.0768C328.243 71.07 328.199 71.0632 328.154 71.0551H328.156ZM337.499 70.6798C337.508 69.3883 337.38 68.1375 336.786 66.9792C336.135 65.7121 335.157 64.9712 333.666 64.9902C332.199 65.0106 331.196 65.757 330.652 67.0281C329.617 69.444 329.616 71.9156 330.672 74.3247C331.228 75.5945 332.252 76.3151 333.716 76.3164C335.178 76.3192 336.139 75.5864 336.781 74.3465C337.379 73.1909 337.509 71.9401 337.5 70.6798H337.499Z" fill="white"/>
<path d="M209.437 73.952C209.471 73.6284 209.494 73.502 209.495 73.3769C209.496 71.1826 209.507 68.9897 209.49 66.7954C209.48 65.5719 209.456 65.5787 208.3 65.2633C208.19 65.2333 208.115 65.0784 208.024 64.9805C208.119 64.9111 208.213 64.7847 208.309 64.7833C209.306 64.7684 210.303 64.7657 211.299 64.7847C211.404 64.7861 211.506 64.9451 211.609 65.0308C211.5 65.1123 211.401 65.2415 211.279 65.2673C210.177 65.4985 210.148 65.493 210.141 66.6092C210.123 69.7076 210.133 72.8059 210.133 75.9043C210.133 76.1735 210.133 76.4426 209.979 76.8546C209.771 76.6942 209.511 76.5718 209.362 76.3692C207.184 73.4231 205.022 70.4662 202.854 67.5133C202.714 67.3229 202.56 67.1435 202.42 66.9667C202.348 67.0103 202.314 67.0211 202.314 67.032C202.307 69.7891 202.295 72.5476 202.303 75.3047C202.306 75.9274 202.835 75.9287 203.272 76.0348C203.448 76.0769 203.599 76.2197 203.76 76.3162C203.58 76.3896 203.4 76.5215 203.218 76.5269C202.336 76.5487 201.452 76.546 200.568 76.5269C200.426 76.5242 200.287 76.3991 200.146 76.3312C200.28 76.2306 200.412 76.0484 200.551 76.0416C201.281 76.0076 201.596 75.631 201.595 74.9241C201.591 72.0745 201.589 69.2249 201.595 66.3754C201.595 65.6616 201.267 65.304 200.544 65.2673C200.388 65.2592 200.238 65.092 200.086 64.9981C200.117 64.9234 200.15 64.8472 200.181 64.7725C200.946 64.7725 201.714 64.7385 202.476 64.7942C202.688 64.8092 202.927 65.0553 203.074 65.2537C205.013 67.898 206.936 70.5532 208.864 73.2056C209.008 73.4027 209.162 73.5931 209.438 73.9506L209.437 73.952Z" fill="white"/>
<path d="M187.974 71.2073C187.953 69.7023 188.073 68.3387 188.764 67.092C189.9 65.0364 192.146 64.1296 194.786 64.6462C196.851 65.05 198.446 66.8704 198.761 69.1041C198.948 70.4201 198.931 71.7185 198.577 72.9964C197.895 75.4477 195.852 76.8888 193.234 76.8058C190.648 76.7243 188.743 75.1812 188.195 72.7001C188.078 72.1739 188.035 71.6315 187.975 71.2073H187.974ZM197.194 70.6336C197.203 69.395 197.078 68.1429 196.484 66.9846C195.834 65.7162 194.858 64.9739 193.367 64.9915C191.9 65.0092 190.894 65.7529 190.35 67.024C189.314 69.4386 189.311 71.9102 190.365 74.3206C190.92 75.5904 191.942 76.3137 193.406 76.3178C194.868 76.3218 195.83 75.5918 196.473 74.3519C197.073 73.1963 197.205 71.9455 197.194 70.6336Z" fill="white"/>
<path d="M379.103 70.6892C378.964 71.4859 378.896 72.303 378.672 73.0752C377.97 75.4979 376.006 76.8642 373.417 76.8057C370.859 76.7486 368.931 75.2572 368.356 72.8114C367.972 71.1827 367.971 69.5377 368.531 67.9389C369.445 65.3286 371.722 64.3062 374.206 64.5442C377.33 64.8433 379.01 67.2238 379.101 70.6892H379.103ZM377.33 70.5818C377.345 69.3705 377.21 68.1197 376.612 66.9641C375.985 65.7528 375.053 65.0118 373.618 64.9901C372.157 64.967 371.107 65.6535 370.539 66.922C369.431 69.3936 369.428 71.9277 370.543 74.398C371.103 75.6406 372.132 76.319 373.564 76.3163C374.997 76.3149 375.951 75.5998 376.59 74.3926C377.21 73.222 377.346 71.9468 377.33 70.5818Z" fill="white"/>
<path d="M260.957 64.8037H268.818V66.862C268.6 66.8729 268.365 66.8838 268.157 66.8933C268.1 66.8172 268.057 66.7832 268.05 66.7451C267.903 65.8505 267.355 65.4033 266.405 65.4033C265.615 65.4033 264.825 65.4033 263.988 65.4033V70.0556C264.934 70.0556 265.854 70.0787 266.773 70.0325C266.928 70.0243 267.074 69.7252 267.215 69.5525C267.35 69.388 267.472 69.214 267.598 69.0441C267.66 69.0794 267.719 69.1148 267.781 69.1501V71.7794C267.536 71.5796 267.287 71.479 267.265 71.3417C267.174 70.7775 266.828 70.6809 266.341 70.6932C265.574 70.7136 264.806 70.6986 264.016 70.6986C264.016 72.2621 263.989 73.7711 264.047 75.2761C264.055 75.4882 264.476 75.8444 264.723 75.8607C265.737 75.9274 266.761 75.9206 267.778 75.8607C267.995 75.8472 268.252 75.5317 268.384 75.2952C268.508 75.0722 268.49 74.7704 268.543 74.4604H269.282V76.4834H260.967C260.933 76.4304 260.897 76.3774 260.863 76.3243C261.01 76.2265 261.153 76.0552 261.307 76.0443C261.973 75.9967 262.347 75.7248 262.344 75.0029C262.333 72.1085 262.333 69.214 262.347 66.3196C262.351 65.595 261.978 65.3244 261.313 65.2714C261.156 65.2592 261.01 65.0906 260.859 64.994C260.892 64.9315 260.926 64.869 260.958 64.8064L260.957 64.8037Z" fill="white"/>
<path d="M284.932 76.3396C285.071 76.2362 285.207 76.0514 285.35 76.0446C286.068 76.0119 286.416 75.6911 286.413 74.9515C286.403 72.1019 286.407 69.2524 286.418 66.4028C286.421 65.6496 286.08 65.2853 285.324 65.2649C285.207 65.2621 285.096 65.0813 284.983 64.9834C285.098 64.9141 285.215 64.7836 285.331 64.7822C287.839 64.77 290.349 64.7727 292.899 64.7727V66.8664H292.142C292.115 66.6761 292.074 66.4857 292.062 66.2927C292.006 65.4117 292.009 65.4076 291.099 65.4049C290.104 65.4008 289.11 65.4049 288.061 65.4049V70.0504C289.008 70.0504 289.949 70.0735 290.887 70.0259C291.031 70.0191 291.151 69.6806 291.295 69.508C291.424 69.3516 291.572 69.2116 291.711 69.0634C291.76 69.1042 291.81 69.1436 291.859 69.1844V71.7892C291.591 71.5554 291.343 71.4453 291.314 71.2944C291.222 70.8022 290.932 70.688 290.49 70.6962C289.7 70.7111 288.909 70.7003 288.085 70.7003C288.085 72.2746 288.058 73.8027 288.118 75.3267C288.126 75.5252 288.575 75.8515 288.834 75.8678C289.827 75.9304 290.826 75.8964 291.822 75.8869C292.224 75.8828 292.438 75.6707 292.472 75.256C292.494 74.9909 292.565 74.7299 292.618 74.4444H293.337V76.5014H285.043C285.004 76.4483 284.968 76.394 284.93 76.3409L284.932 76.3396Z" fill="white"/>
<path d="M380.12 64.7956H384.526C384.565 64.8486 384.603 64.9017 384.643 64.956C384.508 65.0634 384.386 65.2375 384.236 65.2674C383.191 65.4727 383.119 65.5284 383.116 66.5807C383.109 68.8212 383.113 71.0603 383.124 73.3008C383.139 76.115 385.347 76.6684 387.153 76.164C388.36 75.8268 389.102 74.8724 389.117 73.6189C389.146 71.2207 389.117 68.8225 389.152 66.4243C389.163 65.6943 388.898 65.3272 388.163 65.2728C388.013 65.2619 387.876 65.0934 387.733 64.9982C387.892 64.9234 388.051 64.7861 388.212 64.7834C389.25 64.7643 390.29 64.7739 391.33 64.7739C391.368 64.8364 391.405 64.9003 391.443 64.9628C391.306 65.0675 391.179 65.2388 391.027 65.2674C389.993 65.4645 389.921 65.523 389.915 66.5861C389.903 68.6458 389.949 70.7055 389.88 72.7624C389.855 73.5075 389.689 74.3001 389.378 74.9744C388.687 76.4644 387.04 76.9539 385.306 76.7676C382.768 76.4957 381.547 75.0927 381.519 72.5232C381.496 70.5328 381.517 68.5411 381.506 66.5494C381.501 65.5325 381.407 65.4482 380.423 65.2701C380.258 65.2402 380.117 65.0879 379.965 64.9914C380.018 64.9261 380.071 64.8609 380.122 64.7956H380.12Z" fill="white"/>
<path d="M241.683 65.4171C240.73 65.4171 239.827 65.4171 238.926 65.4171C238.517 65.4171 238.299 65.6128 238.286 66.0343C238.277 66.3021 238.239 66.5672 238.214 66.8622H237.557V64.8066H247.52V66.8636H246.853C246.615 65.2023 246.849 65.4483 245.085 65.4062C244.525 65.3926 243.966 65.4035 243.372 65.4035C243.354 65.606 243.334 65.7352 243.334 65.8657C243.334 68.873 243.332 71.8803 243.343 74.8875C243.347 75.8093 243.514 75.9656 244.458 76.0323C244.742 76.0526 245.104 75.9792 244.907 76.5339C243.43 76.5339 241.939 76.5394 240.447 76.5244C240.333 76.5244 240.222 76.3857 240.109 76.311C240.228 76.2199 240.34 76.0662 240.47 76.0472C241.606 75.8814 241.717 75.8188 241.724 74.7924C241.746 71.7851 241.735 68.7778 241.733 65.7705C241.733 65.6835 241.709 65.5965 241.683 65.4184V65.4171Z" fill="white"/>
<path d="M303.075 66.8271V64.8218H313.032V66.8543C312.838 66.8692 312.625 66.8855 312.432 66.9005C312.383 66.8325 312.335 66.7972 312.334 66.7605C312.283 65.3506 312.259 65.4104 310.796 65.405C310.187 65.4023 309.579 65.405 308.934 65.405C308.906 65.5913 308.864 65.7395 308.864 65.8876C308.863 68.8732 308.86 71.8573 308.871 74.8428C308.875 75.8217 309.027 75.9522 310.006 76.0447C310.192 76.0623 310.369 76.1901 310.55 76.2663C310.524 76.341 310.5 76.4172 310.474 76.492H305.694C305.661 76.4335 305.629 76.3737 305.596 76.3152C305.759 76.2228 305.915 76.0664 306.087 76.0474C307.064 75.9346 307.242 75.8122 307.249 74.8415C307.272 71.7894 307.259 68.7359 307.256 65.6837C307.256 65.6212 307.222 65.5573 307.185 65.4322C306.228 65.4322 305.261 65.4023 304.298 65.4444C303.748 65.4676 303.809 65.957 303.804 66.3295C303.797 66.7931 303.646 67.0283 303.071 66.8298L303.075 66.8271Z" fill="white"/>
<path d="M326.777 66.872H326.129C326.091 66.8135 326.051 66.7809 326.045 66.7415C325.882 65.8496 325.344 65.4033 324.431 65.4024C323.663 65.4024 322.894 65.4024 322.061 65.4024V70.1947C322.981 70.1947 323.883 70.2219 324.78 70.1702C324.953 70.1607 325.111 69.8453 325.27 69.6658C325.41 69.5081 325.543 69.3423 325.679 69.1805C325.733 69.2172 325.788 69.2553 325.842 69.292V71.716C325.796 71.7568 325.749 71.7976 325.703 71.8384C325.559 71.6915 325.415 71.5447 325.271 71.3979C325.086 71.2116 324.911 70.8799 324.714 70.8663C323.839 70.8078 322.96 70.8405 322.067 70.8405C322.067 72.3862 322.035 73.8736 322.082 75.3568C322.101 75.9903 322.658 75.9958 323.147 76.0393C323.347 76.057 323.538 76.1943 323.732 76.2772C323.706 76.3615 323.68 76.4458 323.654 76.5301C322.188 76.5301 320.721 76.5342 319.254 76.5219C319.157 76.5219 319.062 76.3955 318.967 76.3275C319.057 76.2296 319.142 76.0515 319.237 76.0461C320.362 75.9917 320.383 75.7891 320.405 74.5737C320.453 71.9743 320.431 69.3735 320.416 66.7741C320.409 65.6131 320.383 65.6212 319.216 65.2555C319.093 65.2175 319.02 65.0203 318.846 64.7974H326.776V66.8679L326.777 66.872Z" fill="white"/>
<path d="M363.732 76.5352C362.352 76.5352 360.973 76.5406 359.594 76.5257C359.481 76.5257 359.369 76.3816 359.258 76.3041C359.358 76.2143 359.452 76.0553 359.56 76.0471C360.869 75.9452 360.627 75.5074 360.734 74.5911C361.001 72.3043 360.446 70.2895 359.039 68.461C358.422 67.6588 357.955 66.7412 357.439 65.8656C357.216 65.4863 356.959 65.2321 356.475 65.2593C356.34 65.2661 356.196 65.0921 356.056 64.9996C356.083 64.9248 356.11 64.8487 356.136 64.7739C356.851 64.7739 357.565 64.7739 358.28 64.7739C358.995 64.7739 359.727 64.7739 360.449 64.7739C360.487 64.8378 360.523 64.9004 360.562 64.9643C360.42 65.0662 360.287 65.2416 360.136 65.2593C359.191 65.3694 359.122 65.451 359.587 66.2653C360.412 67.7091 361.268 69.1353 362.179 70.6824C362.795 69.6968 363.343 68.824 363.886 67.9484C364.243 67.372 364.607 66.7996 364.943 66.2109C365.366 65.4686 365.286 65.3476 364.451 65.2634C364.272 65.2457 364.106 65.1002 363.933 65.0132L364.017 64.8079H366.988C367.027 64.8582 367.067 64.9085 367.106 64.9588C366.973 65.0649 366.838 65.2647 366.708 65.2634C366.172 65.2525 365.892 65.5543 365.641 65.9649C364.613 67.6412 363.412 69.2345 362.586 71.0046C361.914 72.443 362.25 74.1016 362.5 75.6529C362.529 75.8255 363.115 75.8962 363.43 76.0417C363.584 76.1124 363.707 76.2456 363.846 76.3503C363.808 76.4128 363.771 76.4754 363.733 76.5393L363.732 76.5352Z" fill="white"/>
<path d="M227.192 70.7031C228.21 69.0282 229.156 67.4946 230.075 65.9461C230.415 65.3738 229.986 65.3099 229.562 65.2704C229.29 65.246 228.853 65.3969 229.035 64.8014H232.009C232.044 64.8599 232.079 64.9197 232.115 64.9782C231.971 65.0774 231.827 65.2623 231.682 65.2623C231.178 65.2609 230.905 65.5342 230.664 65.9257C229.623 67.6211 228.569 69.3082 227.521 70.9981C227.496 71.0362 227.452 71.0743 227.452 71.1137C227.447 72.6146 227.42 74.1169 227.487 75.6137C227.494 75.766 228.077 75.887 228.387 76.0338C228.549 76.11 228.7 76.2119 228.855 76.3017C228.825 76.3791 228.795 76.458 228.764 76.5355C227.366 76.5355 225.967 76.5409 224.569 76.5246C224.465 76.5246 224.36 76.3655 224.257 76.2813C224.365 76.1997 224.463 76.0678 224.583 76.0433C225.709 75.8109 225.618 75.8054 225.736 74.7042C225.987 72.3481 225.457 70.264 223.987 68.3851C223.393 67.6238 222.95 66.7428 222.461 65.904C222.227 65.5043 221.966 65.2242 221.449 65.2582C221.323 65.2664 221.184 65.0733 221.051 64.9714C221.082 64.9061 221.112 64.8422 221.143 64.7769C222.521 64.7769 223.896 64.7729 225.274 64.7865C225.363 64.7865 225.452 64.9251 225.541 64.9999C225.444 65.0896 225.358 65.2378 225.248 65.2582C224.138 65.4703 224.125 65.4717 224.697 66.4628C225.487 67.8304 226.299 69.1859 227.195 70.7045L227.192 70.7031Z" fill="white"/>
<path d="M301.184 67.0023H300.443C300.416 66.8718 300.382 66.7644 300.371 66.6556C300.253 65.4484 299.95 65.099 298.933 65.0079C297.572 64.8855 296.792 65.3315 296.486 66.4028C296.208 67.3762 296.475 68.2517 297.281 68.8771C297.637 69.1531 298.033 69.3774 298.415 69.6181C299.084 70.0395 299.761 70.4474 300.428 70.8729C301.646 71.6505 302.065 72.8007 301.77 74.1561C301.467 75.5524 300.469 76.345 299.115 76.6672C297.779 76.9867 296.461 76.7352 295.17 76.3735C295.005 76.3273 294.819 76.0513 294.798 75.8664C294.747 75.3756 294.781 74.8767 294.781 74.3247C295.024 74.3043 295.236 74.288 295.261 74.2853C295.605 74.8794 295.786 75.5048 296.2 75.8392C296.872 76.379 297.762 76.4198 298.605 76.2689C299.399 76.1275 299.97 75.6367 300.177 74.8454C300.428 73.8829 300.4 72.9176 299.573 72.2256C298.989 71.7375 298.284 71.395 297.653 70.9585C297.005 70.5099 296.303 70.102 295.762 69.5419C294.15 67.8711 294.906 65.2948 297.145 64.6639C298.424 64.3037 299.656 64.6272 300.88 64.9576C301.006 64.9916 301.161 65.205 301.171 65.3437C301.205 65.8794 301.184 66.4177 301.184 66.9996V67.0023Z" fill="white"/>
<path d="M212.425 64.7738C213.802 64.7738 215.178 64.7697 216.555 64.782C216.65 64.782 216.744 64.9098 216.838 64.9778C216.748 65.0756 216.675 65.232 216.566 65.2619C215.427 65.5705 215.395 65.5651 215.386 66.7261C215.367 69.3473 215.364 71.9684 215.387 74.5896C215.398 75.873 215.458 75.9002 216.756 75.9029C217.435 75.9043 218.114 75.907 218.793 75.8975C219.71 75.8839 219.753 75.8417 219.906 74.9227C219.939 74.7256 219.982 74.5311 220.025 74.3136H220.662V76.4794H212.221C212.466 76.2577 212.589 76.0484 212.716 76.047C213.525 76.0334 213.821 75.612 213.818 74.8493C213.807 72.0473 213.805 69.2467 213.818 66.4447C213.822 65.663 213.491 65.2823 212.701 65.2592C212.572 65.2551 212.448 65.0539 212.321 64.9438C212.355 64.8867 212.388 64.8296 212.422 64.7725L212.425 64.7738Z" fill="white"/>
</g>
<g filter="url(#filter2_d_6_249)">
<path d="M40.7953 100.863C41.3473 99.1769 41.8884 97.4883 42.4594 95.808C42.5899 95.4232 42.5097 95.2206 42.178 94.9895C40.7994 94.027 39.444 93.0304 37.9186 91.9292C39.6778 91.9292 41.2494 91.8939 42.8183 91.9455C43.494 91.9673 43.7945 91.7688 43.9793 91.0999C44.3627 89.7118 44.8562 88.3537 45.309 86.9846C45.362 86.8242 45.4395 86.6719 45.5605 86.3892C46.1831 88.3129 46.7664 90.1102 47.3523 91.9197H52.9563C52.7932 92.1196 52.7143 92.2677 52.592 92.3575C51.367 93.2466 50.138 94.1289 48.9049 95.0058C48.599 95.2234 48.4767 95.4164 48.6249 95.8406C49.1292 97.2858 49.5656 98.7541 50.0224 100.216C50.0891 100.426 50.1258 100.647 50.1774 100.863H50.0415C49.4977 100.419 48.9688 99.9559 48.4073 99.5371C47.4489 98.8234 46.47 98.1382 45.4952 97.438C43.944 98.6031 42.4376 99.7329 40.9326 100.863H40.7967H40.7953ZM45.1295 94.4634L45.1458 94.2948C43.5851 93.7959 42.0244 93.2955 40.4636 92.7966C41.2997 93.5715 42.1943 94.2173 43.0984 94.8495C43.2003 94.9215 43.3757 94.9515 43.4981 94.9215C44.046 94.7842 44.5871 94.6197 45.1295 94.4647V94.4634ZM45.7427 94.5613C46.7569 95.9439 47.665 97.1824 48.5732 98.421C48.6344 98.3897 48.6969 98.3584 48.7581 98.3285C48.5528 97.6569 48.2741 96.9989 48.1572 96.3123C47.9315 94.9882 46.9241 94.8155 45.7427 94.5613ZM42.6429 98.4577C42.6946 98.5093 42.7463 98.5624 42.7966 98.614C43.3757 98.1994 43.9494 97.7779 44.534 97.3728C45.4735 96.7229 45.7223 95.9181 45.3035 94.787C44.4117 96.0173 43.5266 97.2368 42.6416 98.4577H42.6429ZM45.4109 89.1096C45.3443 89.1504 45.2899 89.164 45.2804 89.1925C45.0425 89.8831 44.8046 90.5738 44.5775 91.2685C44.1751 92.4975 44.3301 92.9924 45.4123 93.8978V89.1109L45.4109 89.1096ZM45.918 94.1643C47.5155 93.6518 49.0218 93.1691 50.5268 92.6865C50.5173 92.6416 50.5078 92.5981 50.4983 92.5533C49.6853 92.5533 48.8736 92.5533 48.0607 92.5533C46.7773 92.5533 46.5013 92.749 45.9167 94.1643H45.918Z" fill="white"/>
<path d="M0 15.3838C1.94684 17.0315 4.00245 18.4427 6.17633 19.684C7.82136 20.6234 9.47998 21.5438 11.1644 22.4125C13.6252 23.681 16.1118 24.9005 18.5929 26.1308C20.3943 27.0241 22.2133 27.8819 24.0065 28.7901C27.752 30.6866 31.3656 32.8102 34.6666 35.411C38.3373 38.3013 41.4669 41.6906 43.7713 45.791C43.8148 45.8685 43.8896 45.9283 43.9358 46.0044C44.5802 47.0744 44.9174 48.0206 44.273 49.3801C42.5586 52.9992 41.6178 56.8834 41.195 60.8654C40.9544 63.1263 40.7015 65.4171 40.8184 67.6766C41.0564 72.2882 42.333 76.6196 45.0724 80.4875C44.05 81.31 42.942 82.0713 41.5662 82.2222C40.14 82.3786 38.6989 82.5132 37.2687 82.4887C34.9426 82.4493 32.645 82.0699 30.4194 81.3861C26.1002 80.0592 22.303 77.7249 18.7384 75.0249C17.0444 73.7415 15.4401 72.3085 13.9569 70.7859C11.9285 68.7031 10.2658 66.3266 8.8614 63.7653C6.95262 60.2822 5.69642 56.5652 4.85215 52.7123C4.40079 50.6526 4.10305 48.5508 3.86242 46.4544C3.56196 43.8346 3.38114 41.1998 3.16906 38.5705C3.05622 37.1852 2.99368 35.7971 2.89171 34.4117C2.71769 32.0462 2.62797 29.6683 2.32615 27.3177C1.92373 24.1894 1.38128 21.0761 0.83203 17.9696C0.675685 17.0873 0.285501 16.2471 0.00271905 15.3879L0 15.3838Z" fill="white"/>
<path d="M45.9438 80.5173C48.2958 77.4189 49.3617 73.8773 50.0238 70.1998C50.4915 67.6072 50.3854 64.9969 50.0904 62.3771C49.7111 59.0163 49.1034 55.7113 48.0185 52.5069C47.5427 51.1025 46.9254 49.7484 46.421 48.3536C46.3123 48.0545 46.2919 47.6221 46.4292 47.3516C47.5617 45.1192 48.9552 43.0568 50.5486 41.1195C53.4838 37.5535 57.0838 34.8018 60.9354 32.2989C64.7135 29.8422 68.7921 27.977 72.7863 25.9445C75.9908 24.3144 79.2523 22.7944 82.4172 21.091C84.5898 19.9218 86.6617 18.5595 88.7282 17.2082C89.5452 16.6752 90.2277 15.937 91.0801 15.3442C90.902 15.8636 90.6709 16.3707 90.554 16.9036C90.1162 18.8953 89.6418 20.883 89.3223 22.8951C88.9661 25.1383 88.7554 27.4046 88.4984 29.6628C88.4223 30.3303 88.391 31.0019 88.3557 31.6735C88.2591 33.4885 88.2075 35.3075 88.0715 37.1198C87.8812 39.6594 87.6106 42.1935 87.4094 44.7331C87.1321 48.2475 86.5271 51.7061 85.623 55.1063C84.6577 58.7335 83.2669 62.1895 81.2576 65.3843C80.0517 67.3013 78.6677 69.0646 77.1355 70.7354C75.2634 72.7788 73.201 74.6033 70.8735 76.077C68.41 77.635 65.865 79.0816 63.271 80.4112C61.4506 81.3438 59.4426 81.8686 57.3951 82.0889C55.5475 82.2874 53.685 82.494 51.8333 82.4668C50.5404 82.4478 49.2257 82.1364 47.975 81.768C47.2612 81.5586 46.6576 80.974 45.9438 80.5186V80.5173Z" fill="white"/>
<path d="M30.0414 30.9505C32.2221 27.0935 34.3607 23.3657 36.4448 19.6052C38.6595 15.6109 40.8538 11.6044 42.9909 7.56798C44.0826 5.50422 44.8453 3.29363 45.4476 1.03409C45.4639 0.974274 45.4938 0.918534 45.5156 0.862793C46.0159 2.29709 46.4088 3.77218 47.0342 5.13986C48.2564 7.80998 49.5547 10.4502 50.9238 13.0482C52.0848 15.2534 53.4199 17.3647 54.6271 19.5468C56.6107 23.1346 58.5371 26.7536 60.5248 30.3401C60.8429 30.9138 60.7953 31.1966 60.2257 31.5324C56.8867 33.501 53.9039 35.9277 51.2433 38.7392C49.1482 40.9512 47.3305 43.3738 45.9017 46.0752C45.8201 46.2302 45.7195 46.3757 45.536 46.6775C41.9359 39.8948 36.6012 34.9325 30.0428 30.9505H30.0414Z" fill="white"/>
<path d="M11.6281 95.9155V95.354H40.8701V95.9155H11.6281Z" fill="white"/>
<path d="M78.9369 95.4897V96.0512H49.6962V95.4897H78.9369Z" fill="white"/>
<path d="M45.1295 94.4635C44.5857 94.6185 44.046 94.7844 43.4981 94.9204C43.3771 94.9503 43.2017 94.9203 43.0984 94.8483C42.1929 94.2175 41.2997 93.5703 40.4636 92.7954C42.0244 93.2944 43.5851 93.7947 45.1458 94.2936L45.1295 94.4622V94.4635Z" fill="white"/>
<path d="M45.744 94.5615C46.9254 94.8158 47.9329 94.9871 48.1585 96.3126C48.2755 96.9992 48.5542 97.6572 48.7594 98.3288C48.6983 98.36 48.6357 98.3913 48.5746 98.4212C47.6664 97.1827 46.7582 95.9455 45.744 94.5615Z" fill="white"/>
<path d="M42.6443 98.4578C43.5293 97.2383 44.413 96.0175 45.3062 94.7871C45.725 95.9182 45.4762 96.7231 44.5367 97.3729C43.9508 97.7781 43.3784 98.1995 42.7993 98.6142C42.7476 98.5625 42.6959 98.5095 42.6456 98.4578H42.6443Z" fill="white"/>
<path d="M45.4123 89.1098V93.8966C44.3314 92.9926 44.1751 92.4977 44.5775 91.2673C44.8045 90.5726 45.0425 89.882 45.2804 89.1913C45.2899 89.1628 45.3443 89.1492 45.4109 89.1084L45.4123 89.1098Z" fill="white"/>
<path d="M45.9194 94.1643C46.5026 92.749 46.78 92.5532 48.0633 92.5532C48.8763 92.5532 49.688 92.5532 50.501 92.5532C50.5105 92.5981 50.52 92.6416 50.5295 92.6865C49.0232 93.1691 47.5182 93.6517 45.9207 94.1643H45.9194Z" fill="white"/>
</g>
</g>
<defs>
<filter id="filter0_d_6_249" x="95.8804" y="30.7451" width="426.895" height="30.7861" filterUnits="userSpaceOnUse" color-interpolation-filters="sRGB">
<feFlood flood-opacity="0" result="BackgroundImageFix"/>
<feColorMatrix in="SourceAlpha" type="matrix" values="0 0 0 0 0 0 0 0 0 0 0 0 0 0 0 0 0 0 127 0" result="hardAlpha"/>
<feOffset dy="4"/>
<feGaussianBlur stdDeviation="2"/>
<feComposite in2="hardAlpha" operator="out"/>
<feColorMatrix type="matrix" values="0 0 0 0 0 0 0 0 0 0 0 0 0 0 0 0 0 0 0.25 0"/>
<feBlend mode="normal" in2="BackgroundImageFix" result="effect1_dropShadow_6_249"/>
<feBlend mode="normal" in="SourceGraphic" in2="effect1_dropShadow_6_249" result="shape"/>
</filter>
<filter id="filter1_d_6_249" x="183.972" y="64.5039" width="211.472" height="20.3506" filterUnits="userSpaceOnUse" color-interpolation-filters="sRGB">
<feFlood flood-opacity="0" result="BackgroundImageFix"/>
<feColorMatrix in="SourceAlpha" type="matrix" values="0 0 0 0 0 0 0 0 0 0 0 0 0 0 0 0 0 0 127 0" result="hardAlpha"/>
<feOffset dy="4"/>
<feGaussianBlur stdDeviation="2"/>
<feComposite in2="hardAlpha" operator="out"/>
<feColorMatrix type="matrix" values="0 0 0 0 0 0 0 0 0 0 0 0 0 0 0 0 0 0 0.25 0"/>
<feBlend mode="normal" in2="BackgroundImageFix" result="effect1_dropShadow_6_249"/>
<feBlend mode="normal" in="SourceGraphic" in2="effect1_dropShadow_6_249" result="shape"/>
</filter>
<filter id="filter2_d_6_249" x="-4" y="0.862793" width="99.0801" height="108" filterUnits="userSpaceOnUse" color-interpolation-filters="sRGB">
<feFlood flood-opacity="0" result="BackgroundImageFix"/>
<feColorMatrix in="SourceAlpha" type="matrix" values="0 0 0 0 0 0 0 0 0 0 0 0 0 0 0 0 0 0 127 0" result="hardAlpha"/>
<feOffset dy="4"/>
<feGaussianBlur stdDeviation="2"/>
<feComposite in2="hardAlpha" operator="out"/>
<feColorMatrix type="matrix" values="0 0 0 0 0 0 0 0 0 0 0 0 0 0 0 0 0 0 0.25 0"/>
<feBlend mode="normal" in2="BackgroundImageFix" result="effect1_dropShadow_6_249"/>
<feBlend mode="normal" in="SourceGraphic" in2="effect1_dropShadow_6_249" result="shape"/>
</filter>
<clipPath id="clip0_6_249">
<rect width="518.778" height="100" fill="white" transform="translate(0 0.862793)"/>
</clipPath>
</defs>
</svg>
